Fantastic Four - Rise of the Silver Surfer (2007) [BDRip720p-Ita.Eng.Spa][Nautilus-BT]
Join www.nautilus-bt.org


Link IMDb : http://www.imdb.com/title/tt0486576/

The Fantastic Four learn that they aren't the only super-powered beings in the universe when they square off against the powerful Silver Surfer and the planet-eating Galactus.








Italian title : I fantastici 4 e Silver Surfer
Original title : Fantastic Four : Rise of the Silver Surfer
Release date : 2007
Genre : action - fantastic - superheroes
Country : USA
Directed by : Tim Story
Based on : Fantastic Four by Stan Lee - Jack Kirby


Languages : Italian - English - Spanish
Subtitle : Italian - English - Spanish
Subtitle forced : Italian - Spanish
Chapters : yes



General
Complete name                    : I fantastici 4 e Silver Surfer - Fantastic Four - Rise of the Silver Surfer (2007) [BDRip720p Ita-Eng-Spa] by Pitt@Sk8.mkv
Format                           : Matroska
File size                        : 4.38 GiB
Duration                         : 1h 31mn
Overall bit rate                 : 6 823 Kbps
Encoded date                     : UTC 2011-02-04 17:29:25
Writing application              : mkvmerge v4.4.0 ('Die Wiederkehr') built on Oct 31 2010 21:52:48
Writing library                  : libebml v1.0.0 + libmatroska v1.0.0

Video
ID                               : 1
Format                           : AVC
Format/Info                      : Advanced Video Codec
Format profile                   : High@L4.1
Format settings, CABAC           : Yes
Format settings, ReFrames        : 3 frames
Format settings, GOP             : M=4, N=26
Muxing mode                      : Container profile=Unknown@4.1
Codec ID                         : V_MPEG4/ISO/AVC
Duration                         : 1h 31mn
Bit rate mode                    : Variable
Bit rate                         : 4 522 Kbps
Maximum bit rate                 : 40.0 Mbps
Width                            : 1 280 pixels
Height                           : 534 pixels
Display aspect ratio             : 2.35:1
Frame rate                       : 23.976 fps
Color space                      : YUV
Chroma subsampling               : 4:2:0
Bit depth                        : 8 bits
Scan type                        : Progressive
Bits/(Pixel*Frame)               : 0.276
Stream size                      : 2.84 GiB (65%)
Title                            : BDRip720p by Pitt@Sk8
Writing library                  : x264 core 112 r1867 22bfd31
Encoding settings                : cabac=1 / ref=3 / deblock=1:0:0 / analyse=0x3:0x133 / me=hex / subme=7 / psy=1 / psy_rd=1.00:0.00 / mixed_ref=1 / me_range=16 / chroma_me=1 / trellis=1 / 8x8dct=1 / cqm=0 / deadzone=21,11 / fast_pskip=1 / chroma_qp_offset=-2 / threads=6 / sliced_threads=0 / slices=4 / nr=0 / decimate=1 / interlaced=0 / constrained_intra=0 / bframes=3 / b_pyramid=1 / b_adapt=1 / b_bias=0 / direct=1 / weightb=1 / open_gop=2 / weightp=2 / keyint=240 / keyint_min=23 / scenecut=40 / intra_refresh=0 / rc_lookahead=40 / rc=2pass / mbtree=1 / bitrate=4522 / ratetol=1.0 / qcomp=0.60 / qpmin=10 / qpmax=51 / qpstep=4 / cplxblur=20.0 / qblur=0.5 / vbv_maxrate=40000 / vbv_bufsize=40000 / nal_hrd=vbr / ip_ratio=1.40 / aq=1:1.00

Audio #1
ID                               : 2
Format                           : DTS
Format/Info                      : Digital Theater Systems
Codec ID                         : A_DTS
Duration                         : 1h 31mn
Bit rate mode                    : Constant
Bit rate                         : 755 Kbps
Channel(s)                       : 6 channels
Channel positions                : Front: L C R, Side: L R, LFE
Sampling rate                    : 48.0 KHz
Bit depth                        : 24 bits
Stream size                      : 496 MiB (11%)
Title                            : Italiano DTS 5.1 755 kbps - Pitt@Sk8
Language                         : Italian

Audio #2
ID                               : 3
Format                           : DTS
Format/Info                      : Digital Theater Systems
Codec ID                         : A_DTS
Duration                         : 1h 31mn
Bit rate mode                    : Constant
Bit rate                         : 755 Kbps
Channel(s)                       : 6 channels
Channel positions                : Front: L C R, Side: L R, LFE
Sampling rate                    : 48.0 KHz
Bit depth                        : 24 bits
Stream size                      : 496 MiB (11%)
Title                            : English DTS 5.1 755 kbps - Pitt@Sk8
Language                         : English

Audio #3
ID                               : 4
Format                           : DTS
Format/Info                      : Digital Theater Systems
Codec ID                         : A_DTS
Duration                         : 1h 31mn
Bit rate mode                    : Constant
Bit rate                         : 755 Kbps
Channel(s)                       : 6 channels
Channel positions                : Front: L C R, Side: L R, LFE
Sampling rate                    : 48.0 KHz
Bit depth                        : 24 bits
Stream size                      : 496 MiB (11%)
Title                            : Spanish DTS 5.1 755 kbps - Pitt@Sk8
Language                         : Spanish

Text #1
ID                               : 5
Format                           : VobSub
Codec ID                         : S_VOBSUB
Codec ID/Info                    : The same subtitle format used on DVDs
Title                            : Cartelli - Italiano
Language                         : Italian

Text #2
ID                               : 6
Format                           : VobSub
Codec ID                         : S_VOBSUB
Codec ID/Info                    : The same subtitle format used on DVDs
Title                            : Sottotitoli - Italiano
Language                         : Italian

Text #3
ID                               : 7
Format                           : VobSub
Codec ID                         : S_VOBSUB
Codec ID/Info                    : The same subtitle format used on DVDs
Title                            : Subtitle - English
Language                         : English

Text #4
ID                               : 8
Format                           : VobSub
Codec ID                         : S_VOBSUB
Codec ID/Info                    : The same subtitle format used on DVDs
Title                            : Cartelli - Spanish
Language                         : Spanish

Text #5
ID                               : 9
Format                           : VobSub
Codec ID                         : S_VOBSUB
Codec ID/Info                    : The same subtitle format used on DVDs
Title                            : Subtitle - Spanish
Language                         : Spanish

Menu
00:00:00.000                     : en:Capitolo 01- Pitt@Sk8
00:05:58.733                     : en:Capitolo 02- Pitt@Sk8
00:09:43.458                     : en:Capitolo 03- Pitt@Sk8
00:13:48.327                     : en:Capitolo 04- Pitt@Sk8
00:18:14.635                     : en:Capitolo 05- Pitt@Sk8
00:23:24.111                     : en:Capitolo 06- Pitt@Sk8
00:26:46.188                     : en:Capitolo 07- Pitt@Sk8
00:31:32.015                     : en:Capitolo 08- Pitt@Sk8
00:33:35.055                     : en:Capitolo 09- Pitt@Sk8
00:37:05.598                     : en:Capitolo 10- Pitt@Sk8
00:38:33.937                     : en:Capitolo 11- Pitt@Sk8
00:40:25.465                     : en:Capitolo 12- Pitt@Sk8
00:41:50.508                     : en:Capitolo 13- Pitt@Sk8
00:45:39.653                     : en:Capitolo 14- Pitt@Sk8
00:48:31.158                     : en:Capitolo 15- Pitt@Sk8
00:50:12.259                     : en:Capitolo 16- Pitt@Sk8
00:53:58.819                     : en:Capitolo 17- Pitt@Sk8
00:55:33.413                     : en:Capitolo 18- Pitt@Sk8
01:00:11.441                     : en:Capitolo 19- Pitt@Sk8
01:02:20.904                     : en:Capitolo 20- Pitt@Sk8
01:06:05.044                     : en:Capitolo 21- Pitt@Sk8
01:09:24.994                     : en:Capitolo 22- Pitt@Sk8
01:12:35.351                     : en:Capitolo 23- Pitt@Sk8
01:15:29.859                     : en:Capitolo 24- Pitt@Sk8
01:18:00.551                     : en:Capitolo 25- Pitt@Sk8
01:23:15.324                     : en:Capitolo 26- Pitt@Sk8
01:24:34.736                     : en:Capitolo 27- Pitt@Sk8
01:26:29.142                     : en:Capitolo 28- Pitt@Sk8

Join www.nautilus-bt.org
